HIERARCHY
ROOT Hips
{
	OFFSET 0.000000 35.082581 0.000000
	CHANNELS 6 Xposition Yposition Zposition Xrotation Yrotation Zrotation 
	JOINT Spine
	{
		OFFSET 0.000000 6.876099 0.125700
		CHANNELS 3 Xrotation Yrotation Zrotation
		JOINT Spine1
		{
			OFFSET 0.000000 5.730043 0.104720
			CHANNELS 3 Xrotation Yrotation Zrotation
			JOINT Spine1_split
			{
				OFFSET 0.000000 5.730043 0.104720
				CHANNELS 3 Xrotation Yrotation Zrotation
				JOINT Spine2
				{
					OFFSET 0.000000 5.730043 0.104720
					CHANNELS 3 Xrotation Yrotation Zrotation
					JOINT Neck
					{
						OFFSET 0.000000 10.314075 0.188496
						CHANNELS 3 Xrotation Yrotation Zrotation
						JOINT Head
						{
							OFFSET 0.000000 7.643700 -2.377400
							CHANNELS 3 Xrotation Yrotation Zrotation
							JOINT HeadTop_End
							{
								OFFSET 0.000000 43.788605 -13.619600
								CHANNELS 3 Xrotation Yrotation Zrotation
								End Site
								{
									OFFSET 0.000000 0.000000 0.000000
								}
							}
						}
					}
					JOINT LeftShoulder
					{
						OFFSET 2.196100 4.412489 0.087492
						CHANNELS 3 Xrotation Yrotation Zrotation
						JOINT LeftShoulder_split
						{
							OFFSET 2.196100 4.412489 0.087492
							CHANNELS 3 Xrotation Yrotation Zrotation
							JOINT LeftArm
							{
								OFFSET 8.771219 -2.981674 -0.026999
								CHANNELS 3 Xrotation Yrotation Zrotation
								JOINT LeftForeArm
								{
									OFFSET 8.512804 0.000000 -0.000000
									CHANNELS 3 Xrotation Yrotation Zrotation
									JOINT LeftHand
									{
										OFFSET 18.484802 0.000000 -0.000000
										CHANNELS 3 Xrotation Yrotation Zrotation
										JOINT LeftHandThumb1
										{
											OFFSET 2.499420 -1.158070 2.653252
											CHANNELS 3 Xrotation Yrotation Zrotation
											JOINT LeftHandThumb2
											{
												OFFSET 2.370079 -1.368366 1.368366
												CHANNELS 3 Xrotation Yrotation Zrotation
												JOINT LeftHandThumb3
												{
													OFFSET 2.676727 -1.545410 1.545409
													CHANNELS 3 Xrotation Yrotation Zrotation
													JOINT LeftHandThumb4
													{
														OFFSET 1.692226 -0.977005 0.977007
														CHANNELS 3 Xrotation Yrotation Zrotation
														End Site
														{
															OFFSET 0.000000 0.000000 0.000000
														}
													}
												}
											}
										}
										JOINT LeftHandIndex1
										{
											OFFSET 7.924831 -0.457527 2.345128
											CHANNELS 3 Xrotation Yrotation Zrotation
											JOINT LeftHandIndex2
											{
												OFFSET 3.643303 0.000000 0.000000
												CHANNELS 3 Xrotation Yrotation Zrotation
												JOINT LeftHandIndex3
												{
													OFFSET 3.810799 0.000000 0.000000
													CHANNELS 3 Xrotation Yrotation Zrotation
													JOINT LeftHandIndex4
													{
														OFFSET 2.403702 0.000000 0.000000
														CHANNELS 3 Xrotation Yrotation Zrotation
														End Site
														{
															OFFSET 0.000000 0.000000 0.000000
														}
													}
												}
											}
										}
										JOINT LeftHandMiddle1
										{
											OFFSET 8.563995 0.000000 -0.000000
											CHANNELS 3 Xrotation Yrotation Zrotation
											JOINT LeftHandMiddle2
											{
												OFFSET 3.861618 0.000000 0.000000
												CHANNELS 3 Xrotation Yrotation Zrotation
												JOINT LeftHandMiddle3
												{
													OFFSET 3.701603 0.000000 0.000000
													CHANNELS 3 Xrotation Yrotation Zrotation
													JOINT LeftHandMiddle4
													{
														OFFSET 2.322544 0.000000 0.000000
														CHANNELS 3 Xrotation Yrotation Zrotation
														End Site
														{
															OFFSET 0.000000 0.000000 0.000000
														}
													}
												}
											}
										}
										JOINT LeftHandRing1
										{
											OFFSET 8.426460 -0.424637 -3.286992
											CHANNELS 3 Xrotation Yrotation Zrotation
											JOINT LeftHandRing2
											{
												OFFSET 3.126408 0.000000 0.000000
												CHANNELS 3 Xrotation Yrotation Zrotation
												JOINT LeftHandRing3
												{
													OFFSET 3.085026 0.000000 0.000000
													CHANNELS 3 Xrotation Yrotation Zrotation
													JOINT LeftHandRing4
													{
														OFFSET 1.644005 0.000000 0.000000
														CHANNELS 3 Xrotation Yrotation Zrotation
														End Site
														{
															OFFSET 0.000000 0.000000 0.000000
														}
													}
												}
											}
										}
									}
								}
							}
						}
					}
					JOINT RightShoulder
					{
						OFFSET -2.196100 4.412496 0.070690
						CHANNELS 3 Xrotation Yrotation Zrotation
						JOINT RightShoulder_split
						{
							OFFSET -2.196100 4.412496 0.070690
							CHANNELS 3 Xrotation Yrotation Zrotation
							JOINT RightArm
							{
								OFFSET -8.771282 -2.981682 -0.094208
								CHANNELS 3 Xrotation Yrotation Zrotation
								JOINT RightForeArm
								{
									OFFSET -8.494598 0.000000 0.000000
									CHANNELS 3 Xrotation Yrotation Zrotation
									JOINT RightHand
									{
										OFFSET -18.483803 0.000000 0.000001
										CHANNELS 3 Xrotation Yrotation Zrotation
										JOINT RightHandThumb1
										{
											OFFSET -2.527351 -1.008072 2.575253
											CHANNELS 3 Xrotation Yrotation Zrotation
											JOINT RightHandThumb2
											{
												OFFSET -2.321518 -1.340328 1.340329
												CHANNELS 3 Xrotation Yrotation Zrotation
												JOINT RightHandThumb3
												{
													OFFSET -2.657753 -1.534454 1.534455
													CHANNELS 3 Xrotation Yrotation Zrotation
													JOINT RightHandThumb4
													{
														OFFSET -1.807510 -1.043568 1.043567
														CHANNELS 3 Xrotation Yrotation Zrotation
														End Site
														{
															OFFSET 0.000000 0.000000 0.000000
														}
													}
												}
											}
										}
										JOINT RightHandIndex1
										{
											OFFSET -8.811420 0.015533 2.887987
											CHANNELS 3 Xrotation Yrotation Zrotation
											JOINT RightHandIndex2
											{
												OFFSET -3.537502 0.000000 0.000000
												CHANNELS 3 Xrotation Yrotation Zrotation
												JOINT RightHandIndex3
												{
													OFFSET -3.356201 0.000000 0.000000
													CHANNELS 3 Xrotation Yrotation Zrotation
													JOINT RightHandIndex4
													{
														OFFSET -1.933098 0.000000 0.000000
														CHANNELS 3 Xrotation Yrotation Zrotation
														End Site
														{
															OFFSET 0.000000 0.000000 0.000000
														}
													}
												}
											}
										}
										JOINT RightHandMiddle1
										{
											OFFSET -8.178135 0.000000 0.000000
											CHANNELS 3 Xrotation Yrotation Zrotation
											JOINT RightHandMiddle2
											{
												OFFSET -3.901302 0.000000 0.000000
												CHANNELS 3 Xrotation Yrotation Zrotation
												JOINT RightHandMiddle3
												{
													OFFSET -3.909599 0.000000 0.000000
													CHANNELS 3 Xrotation Yrotation Zrotation
													JOINT RightHandMiddle4
													{
														OFFSET -2.376003 0.000000 0.000000
														CHANNELS 3 Xrotation Yrotation Zrotation
														End Site
														{
															OFFSET 0.000000 0.000000 0.000000
														}
													}
												}
											}
										}
										JOINT RightHandRing1
										{
											OFFSET -7.559013 0.014137 -2.865403
											CHANNELS 3 Xrotation Yrotation Zrotation
											JOINT RightHandRing2
											{
												OFFSET -3.449306 0.000000 0.000000
												CHANNELS 3 Xrotation Yrotation Zrotation
												JOINT RightHandRing3
												{
													OFFSET -3.362106 0.000000 0.000000
													CHANNELS 3 Xrotation Yrotation Zrotation
													JOINT RightHandRing4
													{
														OFFSET -2.076401 0.000000 0.000000
														CHANNELS 3 Xrotation Yrotation Zrotation
														End Site
														{
															OFFSET 0.000000 0.000000 0.000000
														}
													}
												}
											}
										}
									}
								}
							}
						}
					}
				}
			}
		}
	}
	JOINT LeftUpLeg
	{
		OFFSET 10.205400 -3.823500 0.155100
		CHANNELS 3 Xrotation Yrotation Zrotation
		JOINT LeftLeg
		{
			OFFSET 0.708757 -12.982077 0.567790
			CHANNELS 3 Xrotation Yrotation Zrotation
			JOINT LeftFoot
			{
				OFFSET -0.708756 -10.717838 -2.184338
				CHANNELS 3 Xrotation Yrotation Zrotation
				JOINT LeftToeBase
				{
					OFFSET 0.108149 -7.191104 7.560241
					CHANNELS 3 Xrotation Yrotation Zrotation
					JOINT LeftToe_End
					{
						OFFSET 0.070230 0.081724 4.490308
						CHANNELS 3 Xrotation Yrotation Zrotation
						End Site
						{
							OFFSET 0.000000 0.000000 0.000000
						}
					}
				}
			}
		}
	}
	JOINT RightUpLeg
	{
		OFFSET -10.205400 -3.823500 0.005500
		CHANNELS 3 Xrotation Yrotation Zrotation
		JOINT RightLeg
		{
			OFFSET -0.708756 -12.982134 0.610632
			CHANNELS 3 Xrotation Yrotation Zrotation
			JOINT RightFoot
			{
				OFFSET 0.708754 -10.717769 -1.945823
				CHANNELS 3 Xrotation Yrotation Zrotation
				JOINT RightToeBase
				{
					OFFSET -0.108140 -7.191069 7.372968
					CHANNELS 3 Xrotation Yrotation Zrotation
					JOINT RightToe_End
					{
						OFFSET -0.070227 0.081735 4.479403
						CHANNELS 3 Xrotation Yrotation Zrotation
						End Site
						{
							OFFSET 0.000000 0.000000 0.000000
						}
					}
				}
			}
		}
	}
}
MOTION
Frames: 4
Frame Time: 0.016667
0.173925 31.469486 3.484001 -12.954302 -1.220467 -4.909976 5.922134 -0.704670 2.545820 9.106088 -0.324704 -0.848843 0.000000 0.000000 0.000000 9.111606 -0.022998 -0.851798 15.434441 0.560289 0.855191 -3.243830 0.523977 4.960276 -0.000000 0.000000 0.000000 0.689296 3.725264 -11.385410 0.000000 0.000000 0.000000 59.736937 -63.314692 -9.099190 -0.000002 -20.467432 -0.000000 -19.310944 9.265475 -7.550688 21.734263 5.841487 -2.497391 -16.162787 18.936380 19.036149 -9.576522 8.451306 10.577064 -0.000002 -0.000004 -0.000004 0.152616 1.444569 -12.061579 0.086624 1.091002 -9.079581 0.021684 0.547224 -4.539373 -0.000003 0.000000 -0.000001 0.152210 1.442692 -12.045582 0.086926 1.092920 -9.095561 0.021688 0.547222 -4.539377 -0.000001 0.000001 -0.000000 0.152611 1.444570 -12.061578 0.086639 1.091013 -9.079576 0.021676 0.547217 -4.539375 0.000001 -0.000000 0.000003 1.381296 0.020055 11.778460 0.000000 0.000000 0.000000 9.839223 40.445337 56.843256 0.000011 26.830945 -0.000016 35.425719 -10.440532 11.800213 -0.389753 -6.638715 -15.665597 8.907285 -22.771349 0.157761 0.754314 -6.942793 -2.431185 0.000001 -0.000000 0.000001 0.174546 -1.551243 12.839279 0.140308 -1.392657 11.506926 0.035160 -0.699825 5.752611 -0.000004 0.000001 -0.000003 0.174544 -1.551245 12.839278 0.140309 -1.392655 11.506928 0.035163 -0.699829 5.752619 0.000002 0.000000 -0.000000 0.174547 -1.551247 12.839277 0.140302 -1.392651 11.506923 0.035164 -0.699825 5.752616 0.000000 0.000000 -0.000001 -36.500582 19.044825 12.407433 50.599107 -7.900674 11.319994 -4.572139 -8.084493 -1.566283 -1.018572 0.000004 0.000004 0.000000 -0.000000 -0.000000 -21.072148 -36.030170 -2.702972 41.126106 9.293477 -10.591426 -7.351181 7.673163 -4.086195 -0.000064 0.000001 0.000001 0.000000 -0.000002 0.000000 
0.172450 31.471336 3.486187 -12.938894 -1.179078 -4.909170 5.918204 -0.705087 2.549404 9.101768 -0.326363 -0.858132 0.000000 0.000000 0.000000 9.107329 -0.025738 -0.860712 15.423281 0.554961 0.870815 -3.284134 0.522453 4.912769 -0.000002 0.000000 -0.000000 0.689445 3.728121 -11.389778 0.000000 0.000000 0.000000 59.635529 -63.287126 -9.181433 0.000005 -20.479446 0.000013 -19.271237 9.284311 -7.567682 21.734266 5.841485 -2.497390 -16.162787 18.936380 19.036150 -9.576525 8.451314 10.577064 -0.000004 0.000004 -0.000000 0.152618 1.444569 -12.061576 0.086627 1.091003 -9.079578 0.021688 0.547223 -4.539372 -0.000002 -0.000000 -0.000002 0.152209 1.442692 -12.045580 0.086924 1.092919 -9.095560 0.021686 0.547223 -4.539379 0.000002 0.000001 -0.000000 0.152614 1.444570 -12.061576 0.086637 1.091012 -9.079579 0.021680 0.547217 -4.539376 0.000001 -0.000000 0.000001 1.380296 0.014383 11.778711 0.000000 0.000000 0.000000 9.844061 40.462553 56.845332 0.000005 26.845937 -0.000016 35.401188 -10.448963 11.800105 -0.389751 -6.638713 -15.665596 8.907280 -22.771357 0.157758 0.754317 -6.942803 -2.431190 -0.000000 -0.000002 -0.000000 0.174550 -1.551243 12.839279 0.140305 -1.392657 11.506922 0.035156 -0.699824 5.752606 -0.000001 0.000000 -0.000002 0.174545 -1.551245 12.839279 0.140309 -1.392655 11.506928 0.035161 -0.699829 5.752619 0.000000 0.000000 -0.000002 0.174550 -1.551248 12.839277 0.140306 -1.392650 11.506924 0.035165 -0.699826 5.752612 -0.000001 0.000000 -0.000001 -36.514840 19.028212 12.388257 50.583514 -7.900499 11.320052 -4.550772 -8.094064 -1.555701 -1.025296 -0.000001 -0.000003 0.000000 0.000000 -0.000000 -21.056520 -36.061411 -2.708139 41.111117 9.296644 -10.590177 -7.369077 7.661736 -4.078338 -0.000062 0.000004 0.000001 0.000000 0.000001 -0.000000 
0.171053 31.472977 3.488345 -12.925110 -1.141731 -4.909124 5.914993 -0.705781 2.552511 9.098276 -0.328489 -0.866142 0.000000 0.000000 0.000000 9.103879 -0.028799 -0.868352 15.411972 0.550057 0.886042 -3.321174 0.521828 4.868124 0.000000 -0.000000 0.000000 0.689448 3.729466 -11.390606 0.000000 0.000000 0.000000 59.511356 -63.261957 -9.286484 0.000004 -20.488092 0.000036 -19.229276 9.299549 -7.586330 21.734263 5.841487 -2.497391 -16.162787 18.936382 19.036152 -9.576521 8.451316 10.577065 -0.000001 0.000000 -0.000000 0.152616 1.444569 -12.061579 0.086625 1.091002 -9.079580 0.021690 0.547224 -4.539371 0.000001 -0.000001 -0.000001 0.152211 1.442692 -12.045582 0.086923 1.092919 -9.095564 0.021686 0.547222 -4.539377 0.000001 -0.000000 0.000002 0.152618 1.444570 -12.061578 0.086639 1.091013 -9.079578 0.021676 0.547216 -4.539377 0.000001 -0.000000 -0.000000 1.379344 0.009011 11.778178 0.000000 0.000000 0.000000 9.848072 40.481165 56.846688 0.000015 26.857863 -0.000024 35.377849 -10.457162 11.798795 -0.389752 -6.638713 -15.665592 8.907282 -22.771350 0.157760 0.754317 -6.942801 -2.431193 0.000001 0.000000 0.000001 0.174548 -1.551242 12.839280 0.140305 -1.392657 11.506927 0.035160 -0.699824 5.752609 -0.000001 -0.000000 -0.000001 0.174545 -1.551245 12.839279 0.140312 -1.392655 11.506926 0.035162 -0.699829 5.752621 0.000001 0.000001 -0.000001 0.174546 -1.551249 12.839279 0.140303 -1.392650 11.506926 0.035164 -0.699826 5.752615 -0.000002 0.000000 -0.000001 -36.527872 19.012774 12.371886 50.570755 -7.899762 11.320163 -4.532922 -8.103253 -1.545426 -1.031772 0.000006 -0.000001 -0.000000 0.000001 -0.000000 -21.041702 -36.097017 -2.714686 41.097139 9.299656 -10.588878 -7.386007 7.656912 -4.073071 -0.000063 0.000003 0.000000 0.000000 -0.000002 0.000000 
0.169592 31.474606 3.490563 -12.912028 -1.105863 -4.909427 5.912082 -0.706730 2.555662 9.095247 -0.331065 -0.873291 0.000000 0.000000 0.000000 9.100892 -0.032250 -0.875139 15.400787 0.545105 0.901278 -3.355570 0.520873 4.823727 -0.000000 0.000000 -0.000000 0.689396 3.730275 -11.390474 0.000000 0.000000 0.000000 59.372184 -63.239157 -9.406496 0.000018 -20.492451 0.000020 -19.183910 9.314108 -7.606348 21.734268 5.841482 -2.497391 -16.162784 18.936377 19.036147 -9.576525 8.451312 10.577061 -0.000000 -0.000004 -0.000004 0.152615 1.444569 -12.061579 0.086623 1.091003 -9.079580 0.021690 0.547224 -4.539373 -0.000003 0.000001 0.000001 0.152211 1.442692 -12.045583 0.086926 1.092919 -9.095561 0.021685 0.547222 -4.539378 -0.000001 -0.000000 0.000001 0.152617 1.444570 -12.061578 0.086637 1.091013 -9.079576 0.021678 0.547217 -4.539376 0.000001 0.000000 -0.000000 1.378504 0.004380 11.777134 0.000000 0.000000 0.000000 9.850220 40.499562 56.848996 0.000004 26.868057 -0.000002 35.355870 -10.464772 11.797762 -0.389751 -6.638716 -15.665601 8.907284 -22.771354 0.157762 0.754318 -6.942801 -2.431192 -0.000002 0.000000 -0.000000 0.174548 -1.551243 12.839282 0.140304 -1.392657 11.506924 0.035159 -0.699825 5.752614 -0.000000 0.000001 -0.000002 0.174543 -1.551245 12.839280 0.140313 -1.392655 11.506928 0.035160 -0.699830 5.752618 0.000000 0.000001 -0.000001 0.174548 -1.551247 12.839280 0.140303 -1.392651 11.506927 0.035165 -0.699825 5.752617 0.000000 0.000000 -0.000000 -36.540248 18.998181 12.357005 50.558703 -7.899014 11.320210 -4.516243 -8.112561 -1.535055 -1.038270 0.000004 -0.000002 0.000000 -0.000001 -0.000000 -21.025706 -36.131270 -2.719707 41.083045 9.302597 -10.587539 -7.402649 7.651535 -4.068156 -0.000063 0.000003 0.000001 0.000000 -0.000000 0.000000 
